<svg width="117" height="117" viewBox="0 0 117 117" fill="none" xmlns="http://www.w3.org/2000/svg">
    <circle cx="62.5" cy="54.5" r="54.5" fill="#FFF4D0" fill-opacity="0.5" />
    <g clip-path="url(#clip0_1_1858)">
        <path
            d="M72.2653 26.7656H63.9285C63.2521 25.599 61.9894 24.8127 60.5466 24.8127H48.632C47.7246 20.3607 43.7783 17 39.0623 17C34.3464 17 30.4001 20.3607 29.4929 24.8127H17.5781C16.1353 24.8127 14.8726 25.599 14.1962 26.7656H5.85935C2.62851 26.7656 0 29.3941 0 32.6249V111.141C0 114.371 2.62851 117 5.85935 117H72.2653C75.4962 117 78.1247 114.371 78.1247 111.141V32.6249C78.1247 29.3941 75.4962 26.7656 72.2653 26.7656ZM31.2497 28.7189C32.3282 28.7189 33.2028 27.8443 33.2028 26.7658C33.2028 23.5347 35.8313 20.9062 39.0623 20.9062C42.2934 20.9062 44.9221 23.5347 44.9221 26.7658C44.9221 27.8443 45.7967 28.7189 46.8752 28.7189H60.5466V36.5312H17.5781L17.5777 28.7189H31.2497ZM74.2185 111.141C74.2185 112.218 73.3423 113.094 72.2653 113.094H5.85935C4.7824 113.094 3.90623 112.218 3.90623 111.141V32.6249C3.90623 31.548 4.7824 30.6718 5.85935 30.6718H13.6718V34.5781H9.76578C8.68727 34.5781 7.81266 35.4527 7.81266 36.5312V107.234C7.81266 108.313 8.68727 109.187 9.76578 109.187H30.2727C31.3512 109.187 32.2258 108.313 32.2258 107.234C32.2258 106.156 31.3512 105.281 30.2727 105.281H11.7189V38.4843H14.196C14.8724 39.6511 16.1351 40.4374 17.5781 40.4374H60.5466C61.9896 40.4374 63.2523 39.6511 63.9287 38.4843H66.406V105.281H47.8508C46.7723 105.281 45.8977 106.156 45.8977 107.234C45.8977 108.313 46.7723 109.187 47.8508 109.187H68.3591C69.4376 109.187 70.3122 108.313 70.3122 107.234V36.5312C70.3122 35.4527 69.4376 34.5781 68.3591 34.5781H64.4529V30.6718H72.2653C73.3423 30.6718 74.2185 31.548 74.2185 32.6249V111.141Z"
            fill="#DFDFDF" />
        <path
            d="M39.0632 28.7192C40.1417 28.7192 41.0163 27.8446 41.0163 26.7661C41.0163 25.6876 40.1417 24.813 39.0632 24.813H39.0616C37.9831 24.813 37.1093 25.6876 37.1093 26.7661C37.1093 27.8446 37.9844 28.7192 39.0632 28.7192Z"
            fill="#DFDFDF" />
        <path
            d="M91.7858 38.2621C91.455 37.6004 90.7788 37.1826 90.0389 37.1826H84.1796C83.1011 37.1826 82.2265 38.0572 82.2265 39.1357C82.2265 40.2142 83.1011 41.0889 84.1796 41.0889H86.1327L82.6171 45.7763C82.1733 46.3681 82.1017 47.1599 82.4327 47.8218C82.7636 48.4836 83.4397 48.9013 84.1796 48.9013H90.0389C91.1175 48.9013 91.9921 48.0267 91.9921 46.9482C91.9921 45.8697 91.1175 44.9951 90.0389 44.9951H88.0858L91.6014 40.3076C92.0452 39.7156 92.1169 38.924 91.7858 38.2621Z"
            fill="#DFDFDF" />
        <path
            d="M98.0469 27.4166H94.1406L99.6094 20.125C100.053 19.5332 100.125 18.7414 99.7937 18.0795C99.4629 17.4178 98.7867 17 98.0469 17H90.2344C89.1559 17 88.2813 17.8746 88.2813 18.9531C88.2813 20.0316 89.1559 20.9062 90.2344 20.9062H94.1406L88.6719 28.1978C88.2282 28.7896 88.1565 29.5814 88.4875 30.2431C88.8184 30.905 89.4946 31.3228 90.2344 31.3228H98.0469C99.1254 31.3228 100 30.4482 100 29.3697C100 28.2912 99.1254 27.4166 98.0469 27.4166Z"
            fill="#DFDFDF" />
        <path
            d="M29.4576 63.9347C28.7263 64.6659 27.754 65.0688 26.7199 65.0688C25.6859 65.0688 24.7138 64.6661 23.9824 63.9347C23.2195 63.1722 21.9832 63.1722 21.2201 63.9347C20.4574 64.6974 20.4574 65.9341 21.2201 66.697C22.6892 68.1659 24.6423 68.9751 26.7197 68.9751C28.7972 68.9751 30.7503 68.1659 32.2195 66.697C32.9822 65.9343 32.9822 64.6976 32.2195 63.9347C31.457 63.1722 30.2204 63.1722 29.4576 63.9347Z"
            fill="#DFDFDF" />
        <path
            d="M51.4048 68.9751C53.4824 68.9751 55.4355 68.1659 56.9046 66.697C57.6673 65.9343 57.6673 64.6976 56.9046 63.9347C56.1417 63.1722 54.9054 63.1722 54.1423 63.9347C53.4111 64.6659 52.4388 65.0688 51.4046 65.0688C50.3705 65.0688 49.3984 64.6661 48.667 63.9347C47.9041 63.1722 46.6677 63.1722 45.9047 63.9347C45.142 64.6974 45.142 65.9341 45.9047 66.697C47.3744 68.1659 49.3275 68.9751 51.4048 68.9751Z"
            fill="#DFDFDF" />
        <path
            d="M41.8212 76.4971H36.3038C35.2253 76.4971 34.3507 77.3717 34.3507 78.4502C34.3507 79.5287 35.2253 80.4033 36.3038 80.4033H41.8212C42.8997 80.4033 43.7743 79.5287 43.7743 78.4502C43.7743 77.3717 42.8997 76.4971 41.8212 76.4971Z"
            fill="#DFDFDF" />
        <path
            d="M39.0625 105.281H39.061C37.9825 105.281 37.1086 106.156 37.1086 107.234C37.1086 108.313 37.9838 109.187 39.0625 109.187C40.1413 109.187 41.0157 108.313 41.0157 107.234C41.0157 106.156 40.1411 105.281 39.0625 105.281Z"
            fill="#DFDFDF" />
    </g>
    <defs>
        <clipPath id="clip0_1_1858">
            <rect width="100" height="100" fill="white" transform="translate(0 17)" />
        </clipPath>
    </defs>
</svg>
